<svg width="1280" height="84" viewBox="0 0 1280 84" fill="none" xmlns="http://www.w3.org/2000/svg">
<g clip-path="url(#clip0_4_506)">
<path d="M36.96 50L37.52 47.78H35.42L34.86 50H31.72L32.28 47.78H30.2L31.14 43.96H33.22L33.46 43H31.38L32.34 39.18H34.42L35 36.88H38.14L37.56 39.18H39.66L40.24 36.88H43.38L42.8 39.18H44.88L43.92 43H41.84L41.6 43.96H43.68L42.74 47.78H40.66L40.1 50H36.96ZM36.6 43L36.36 43.96H38.46L38.7 43H36.6ZM48.9681 41.54H55.3081C55.6481 41.54 55.9681 41.62 56.2481 41.78C56.5281 41.94 56.7681 42.14 56.9481 42.42C57.1281 42.7 57.2481 43.04 57.2881 43.44C57.3281 43.84 57.3081 44.28 57.1881 44.76L56.6881 46.78C56.5681 47.28 56.3681 47.72 56.1281 48.12C55.8881 48.52 55.6081 48.84 55.2881 49.12C54.9681 49.4 54.6281 49.62 54.2681 49.78C53.9081 49.94 53.5481 50 53.2081 50H43.4681L44.4281 46.18H53.4481C53.5481 46.16 53.6281 46.1 53.6881 46C53.7481 45.92 53.7881 45.82 53.8281 45.74C53.8881 45.54 53.8281 45.42 53.6481 45.34H47.3081C46.9481 45.34 46.6281 45.28 46.3481 45.12C46.0681 44.96 45.8281 44.74 45.6481 44.46C45.4681 44.18 45.3481 43.86 45.3081 43.46C45.2681 43.06 45.3081 42.62 45.4281 42.12L45.9281 40.1C46.0481 39.62 46.2281 39.18 46.4881 38.78C46.7281 38.38 47.0281 38.04 47.3481 37.76C47.6681 37.48 48.0081 37.28 48.3681 37.12C48.7281 36.96 49.0681 36.88 49.4281 36.88H59.1681L58.2081 40.7H49.1881C48.9881 40.78 48.8681 40.92 48.8281 41.12C48.7481 41.36 48.8081 41.5 48.9681 41.54ZM64.2195 40.7H59.4795L60.4395 36.88H73.0595L72.0995 40.7H67.3395L65.0195 50H61.8995L64.2195 40.7ZM77.4858 36.88L75.3058 45.62C75.2658 45.74 75.2858 45.86 75.3658 45.98C75.4458 46.1 75.5458 46.16 75.6858 46.18H81.1058C81.2258 46.16 81.3458 46.1 81.4658 46C81.5858 45.9 81.6858 45.78 81.7658 45.66L83.9658 36.88H87.0858L84.6058 46.78C84.4858 47.28 84.2858 47.72 84.0458 48.12C83.8058 48.52 83.5258 48.84 83.2058 49.12C82.8858 49.4 82.5458 49.62 82.1858 49.78C81.8258 49.94 81.4658 50 81.1258 50H73.7458C73.3858 50 73.0658 49.94 72.7858 49.78C72.5058 49.62 72.2658 49.4 72.0858 49.12C71.9058 48.84 71.7858 48.52 71.7458 48.12C71.7058 47.72 71.7458 47.28 71.8658 46.78L74.3458 36.88H77.4858ZM96.4892 40.7H90.5492L89.1892 46.18H95.1292C95.2492 46.16 95.3892 46.1 95.5492 45.98C95.6892 45.86 95.7692 45.74 95.8092 45.62L96.8892 41.22C96.8892 41.12 96.8492 41.02 96.7692 40.9C96.6892 40.8 96.6092 40.74 96.4892 40.7ZM85.0892 50L88.3692 36.88H98.4292C98.7892 36.88 99.1092 36.96 99.3892 37.12C99.6692 37.28 99.8892 37.48 100.069 37.76C100.229 38.04 100.349 38.38 100.389 38.78C100.429 39.18 100.409 39.62 100.289 40.1L98.6292 46.78C98.5092 47.28 98.3092 47.72 98.0692 48.12C97.8292 48.52 97.5492 48.84 97.2292 49.12C96.9092 49.4 96.5692 49.62 96.2092 49.78C95.8492 49.94 95.4892 50 95.1492 50H85.0892ZM111.853 41.54L110.913 45.34H103.413L103.213 46.18H112.493L111.533 50H99.1127L102.393 36.88H114.813L113.853 40.7H104.573L104.353 41.54H111.853ZM117.764 42.74L115.944 50H112.804L115.704 38.34C115.744 38.22 115.804 38.06 115.924 37.9C116.044 37.74 116.164 37.58 116.304 37.42C116.424 37.26 116.564 37.14 116.684 37.04C116.804 36.94 116.904 36.88 116.984 36.88H118.084C118.264 36.88 118.564 37.16 119.004 37.7L123.884 44.18L125.704 36.88H128.824L125.904 48.54C125.864 48.66 125.804 48.8 125.704 48.96C125.584 49.12 125.464 49.28 125.344 49.44C125.204 49.6 125.064 49.72 124.944 49.84C124.824 49.96 124.724 50 124.664 50H123.544C123.424 50 123.304 49.94 123.164 49.82C123.004 49.7 122.824 49.48 122.624 49.18L117.764 42.74ZM133.888 40.7H129.148L130.108 36.88H142.728L141.768 40.7H137.008L134.688 50H131.568L133.888 40.7Z" fill="black"/>
<path d="M196.96 50L197.52 47.78H195.42L194.86 50H191.72L192.28 47.78H190.2L191.14 43.96H193.22L193.46 43H191.38L192.34 39.18H194.42L195 36.88H198.14L197.56 39.18H199.66L200.24 36.88H203.38L202.8 39.18H204.88L203.92 43H201.84L201.6 43.96H203.68L202.74 47.78H200.66L200.1 50H196.96ZM196.6 43L196.36 43.96H198.46L198.7 43H196.6ZM205.928 40.1C206.048 39.62 206.228 39.18 206.488 38.78C206.728 38.38 207.028 38.04 207.348 37.76C207.668 37.48 208.008 37.28 208.368 37.12C208.728 36.96 209.068 36.88 209.428 36.88H217.108C217.468 36.88 217.788 36.96 218.068 37.12C218.348 37.28 218.588 37.48 218.768 37.76C218.928 38.04 219.048 38.38 219.088 38.78C219.128 39.18 219.108 39.62 218.988 40.1L217.328 46.78C217.208 47.28 217.008 47.72 216.768 48.12C216.528 48.52 216.248 48.84 215.928 49.12C215.608 49.4 215.268 49.62 214.908 49.78C214.548 49.94 214.188 50 213.828 50H206.148C205.788 50 205.468 49.94 205.188 49.78C204.908 49.62 204.668 49.4 204.488 49.12C204.308 48.84 204.188 48.52 204.148 48.12C204.108 47.72 204.148 47.28 204.268 46.78L205.928 40.1ZM209.448 40.7C209.288 40.74 209.168 40.8 209.048 40.9C208.928 41.02 208.828 41.12 208.788 41.22L207.708 45.62C207.668 45.74 207.688 45.86 207.768 45.98C207.848 46.1 207.948 46.16 208.088 46.18H213.808C213.928 46.16 214.068 46.1 214.228 45.98C214.368 45.86 214.448 45.74 214.488 45.62L215.568 41.22C215.568 41.12 215.528 41.02 215.448 40.9C215.368 40.8 215.288 40.74 215.168 40.7H209.448ZM226.036 45.22L232.076 36.88H235.796L226.836 49.18C226.456 49.56 226.096 49.8 225.736 49.88C225.376 49.96 225.076 50 224.836 50C224.716 50 224.576 50 224.416 49.98C224.256 49.98 224.116 49.94 223.976 49.88C223.816 49.82 223.676 49.74 223.556 49.62C223.416 49.52 223.296 49.38 223.216 49.18L220.416 36.88H224.136L226.036 45.22ZM246.384 41.54L245.444 45.34H237.944L237.744 46.18H247.024L246.064 50H233.644L236.924 36.88H249.344L248.384 40.7H239.104L238.884 41.54H246.384ZM256.315 50L254.055 46.32H251.375L250.455 50H247.335L250.615 36.88H260.675C261.035 36.88 261.355 36.96 261.635 37.12C261.915 37.28 262.135 37.48 262.315 37.76C262.475 38.04 262.595 38.38 262.635 38.78C262.675 39.18 262.655 39.62 262.535 40.1L261.795 43.12C261.675 43.62 261.475 44.06 261.235 44.46C260.975 44.86 260.675 45.18 260.355 45.46C260.015 45.74 259.655 45.96 259.275 46.1C258.895 46.26 258.515 46.32 258.155 46.32L260.315 50H256.315ZM258.735 40.7H252.775L252.335 42.48H258.295C258.415 42.46 258.555 42.4 258.715 42.28C258.855 42.16 258.935 42.04 258.975 41.92L259.135 41.22C259.135 41.12 259.095 41.02 259.015 40.9C258.935 40.8 258.855 40.74 258.735 40.7ZM272.719 40.7H263.679L264.639 36.88H274.399C274.759 36.88 275.079 36.96 275.359 37.12C275.639 37.28 275.859 37.48 276.039 37.76C276.199 38.04 276.319 38.38 276.359 38.78C276.399 39.18 276.379 39.62 276.259 40.1L275.859 41.74C275.819 41.86 275.779 42.02 275.699 42.18C275.619 42.34 275.539 42.5 275.439 42.66C275.319 42.82 275.219 42.98 275.099 43.12C274.979 43.26 274.859 43.36 274.759 43.44C274.919 43.64 275.019 43.92 275.059 44.24C275.099 44.58 275.079 44.88 275.019 45.14L274.599 46.78C274.479 47.28 274.279 47.72 274.039 48.12C273.799 48.52 273.519 48.84 273.199 49.12C272.879 49.4 272.539 49.62 272.179 49.78C271.819 49.94 271.459 50 271.119 50H261.359L262.319 46.18H271.339C271.439 46.16 271.519 46.1 271.579 46.02C271.619 45.94 271.659 45.84 271.699 45.76C271.739 45.56 271.679 45.42 271.559 45.36H264.299L265.259 41.52H272.499C272.659 41.48 272.779 41.34 272.859 41.1C272.899 40.9 272.839 40.76 272.719 40.7ZM277.53 40.1C277.65 39.62 277.83 39.18 278.09 38.78C278.33 38.38 278.63 38.04 278.95 37.76C279.27 37.48 279.61 37.28 279.97 37.12C280.33 36.96 280.67 36.88 281.03 36.88H288.71C289.07 36.88 289.39 36.96 289.67 37.12C289.95 37.28 290.19 37.48 290.37 37.76C290.53 38.04 290.65 38.38 290.69 38.78C290.73 39.18 290.71 39.62 290.59 40.1L288.93 46.78C288.81 47.28 288.61 47.72 288.37 48.12C288.13 48.52 287.85 48.84 287.53 49.12C287.21 49.4 286.87 49.62 286.51 49.78C286.15 49.94 285.79 50 285.43 50H277.75C277.39 50 277.07 49.94 276.79 49.78C276.51 49.62 276.27 49.4 276.09 49.12C275.91 48.84 275.79 48.52 275.75 48.12C275.71 47.72 275.75 47.28 275.87 46.78L277.53 40.1ZM286.91 40.76L282.93 46.18H285.41C285.53 46.16 285.67 46.1 285.83 45.98C285.97 45.86 286.05 45.74 286.09 45.62L287.17 41.22C287.17 41.02 287.07 40.86 286.91 40.76ZM281.05 40.7C280.89 40.74 280.77 40.8 280.65 40.9C280.53 41.02 280.43 41.12 280.39 41.22L279.31 45.62C279.23 45.78 279.29 45.94 279.47 46.08L283.39 40.7H281.05Z" fill="black"/>
<path d="M340.96 50L341.52 47.78H339.42L338.86 50H335.72L336.28 47.78H334.2L335.14 43.96H337.22L337.46 43H335.38L336.34 39.18H338.42L339 36.88H342.14L341.56 39.18H343.66L344.24 36.88H347.38L346.8 39.18H348.88L347.92 43H345.84L345.6 43.96H347.68L346.74 47.78H344.66L344.1 50H340.96ZM340.6 43L340.36 43.96H342.46L342.7 43H340.6ZM360.208 50H357.088L358.248 45.38H351.768L350.608 50H347.468L350.748 36.88H353.888L352.708 41.54H359.188L360.368 36.88H363.488L360.208 50ZM374.232 41.54L373.292 45.34H365.792L365.592 46.18H374.872L373.912 50H361.492L364.772 36.88H377.192L376.232 40.7H366.952L366.732 41.54H374.232ZM379.283 46.16H388.163L387.203 50H375.183L378.463 36.88H381.603L379.283 46.16ZM392.564 46.16H401.444L400.484 50H388.464L391.744 36.88H394.884L392.564 46.16ZM404.205 40.1C404.325 39.62 404.505 39.18 404.765 38.78C405.005 38.38 405.305 38.04 405.625 37.76C405.945 37.48 406.285 37.28 406.645 37.12C407.005 36.96 407.345 36.88 407.705 36.88H415.385C415.745 36.88 416.065 36.96 416.345 37.12C416.625 37.28 416.865 37.48 417.045 37.76C417.205 38.04 417.325 38.38 417.365 38.78C417.405 39.18 417.385 39.62 417.265 40.1L415.605 46.78C415.485 47.28 415.285 47.72 415.045 48.12C414.805 48.52 414.525 48.84 414.205 49.12C413.885 49.4 413.545 49.62 413.185 49.78C412.825 49.94 412.465 50 412.105 50H404.425C404.065 50 403.745 49.94 403.465 49.78C403.185 49.62 402.945 49.4 402.765 49.12C402.585 48.84 402.465 48.52 402.425 48.12C402.385 47.72 402.425 47.28 402.545 46.78L404.205 40.1ZM407.725 40.7C407.565 40.74 407.445 40.8 407.325 40.9C407.205 41.02 407.105 41.12 407.065 41.22L405.985 45.62C405.945 45.74 405.965 45.86 406.045 45.98C406.125 46.1 406.225 46.16 406.365 46.18H412.085C412.205 46.16 412.345 46.1 412.505 45.98C412.645 45.86 412.725 45.74 412.765 45.62L413.845 41.22C413.845 41.12 413.805 41.02 413.725 40.9C413.645 40.8 413.565 40.74 413.445 40.7H407.725ZM422.482 36.88L420.302 45.62C420.262 45.74 420.282 45.86 420.362 45.98C420.442 46.1 420.542 46.16 420.682 46.18H424.082L426.402 36.88H429.522L427.202 46.18H430.622C430.742 46.16 430.882 46.1 431.022 45.98C431.162 45.86 431.242 45.74 431.282 45.62L433.462 36.88H436.602L434.122 46.78C434.002 47.28 433.802 47.72 433.562 48.12C433.322 48.52 433.042 48.84 432.722 49.12C432.402 49.4 432.062 49.62 431.702 49.78C431.342 49.94 430.982 50 430.642 50H418.742C418.382 50 418.062 49.94 417.782 49.78C417.502 49.62 417.262 49.4 417.082 49.12C416.902 48.84 416.782 48.52 416.742 48.12C416.702 47.72 416.742 47.28 416.862 46.78L419.342 36.88H422.482ZM447.337 41.54L446.397 45.34H438.897L438.697 46.18H447.977L447.017 50H434.597L437.877 36.88H450.297L449.337 40.7H440.057L439.837 41.54H447.337ZM461.028 41.54L460.088 45.34H452.588L452.388 46.18H461.668L460.708 50H448.288L451.568 36.88H463.988L463.028 40.7H453.748L453.528 41.54H461.028ZM466.94 42.74L465.12 50H461.98L464.88 38.34C464.92 38.22 464.98 38.06 465.1 37.9C465.22 37.74 465.34 37.58 465.48 37.42C465.6 37.26 465.74 37.14 465.86 37.04C465.98 36.94 466.08 36.88 466.16 36.88H467.26C467.44 36.88 467.74 37.16 468.18 37.7L473.06 44.18L474.88 36.88H478L475.08 48.54C475.04 48.66 474.98 48.8 474.88 48.96C474.76 49.12 474.64 49.28 474.52 49.44C474.38 49.6 474.24 49.72 474.12 49.84C474 49.96 473.9 50 473.84 50H472.72C472.6 50 472.48 49.94 472.34 49.82C472.18 49.7 472 49.48 471.8 49.18L466.94 42.74Z" fill="black"/>
<path d="M533.96 50L534.52 47.78H532.42L531.86 50H528.72L529.28 47.78H527.2L528.14 43.96H530.22L530.46 43H528.38L529.34 39.18H531.42L532 36.88H535.14L534.56 39.18H536.66L537.24 36.88H540.38L539.8 39.18H541.88L540.92 43H538.84L538.6 43.96H540.68L539.74 47.78H537.66L537.1 50H533.96ZM533.6 43L533.36 43.96H535.46L535.7 43H533.6ZM545.968 41.54H552.308C552.648 41.54 552.968 41.62 553.248 41.78C553.528 41.94 553.768 42.14 553.948 42.42C554.128 42.7 554.248 43.04 554.288 43.44C554.328 43.84 554.308 44.28 554.188 44.76L553.688 46.78C553.568 47.28 553.368 47.72 553.128 48.12C552.888 48.52 552.608 48.84 552.288 49.12C551.968 49.4 551.628 49.62 551.268 49.78C550.908 49.94 550.548 50 550.208 50H540.468L541.428 46.18H550.448C550.548 46.16 550.628 46.1 550.688 46C550.748 45.92 550.788 45.82 550.828 45.74C550.888 45.54 550.828 45.42 550.648 45.34H544.308C543.948 45.34 543.628 45.28 543.348 45.12C543.068 44.96 542.828 44.74 542.648 44.46C542.468 44.18 542.348 43.86 542.308 43.46C542.268 43.06 542.308 42.62 542.428 42.12L542.928 40.1C543.048 39.62 543.228 39.18 543.488 38.78C543.728 38.38 544.028 38.04 544.348 37.76C544.668 37.48 545.008 37.28 545.368 37.12C545.728 36.96 546.068 36.88 546.428 36.88H556.168L555.208 40.7H546.188C545.988 40.78 545.868 40.92 545.828 41.12C545.748 41.36 545.808 41.5 545.968 41.54ZM561.22 40.7H556.48L557.44 36.88H570.06L569.1 40.7H564.34L562.02 50H558.9L561.22 40.7ZM574.486 36.88L572.306 45.62C572.266 45.74 572.286 45.86 572.366 45.98C572.446 46.1 572.546 46.16 572.686 46.18H578.106C578.226 46.16 578.346 46.1 578.466 46C578.586 45.9 578.686 45.78 578.766 45.66L580.966 36.88H584.086L581.606 46.78C581.486 47.28 581.286 47.72 581.046 48.12C580.806 48.52 580.526 48.84 580.206 49.12C579.886 49.4 579.546 49.62 579.186 49.78C578.826 49.94 578.466 50 578.126 50H570.746C570.386 50 570.066 49.94 569.786 49.78C569.506 49.62 569.266 49.4 569.086 49.12C568.906 48.84 568.786 48.52 568.746 48.12C568.706 47.72 568.746 47.28 568.866 46.78L571.346 36.88H574.486ZM593.489 40.7H587.549L586.189 46.18H592.129C592.249 46.16 592.389 46.1 592.549 45.98C592.689 45.86 592.769 45.74 592.809 45.62L593.889 41.22C593.889 41.12 593.849 41.02 593.769 40.9C593.689 40.8 593.609 40.74 593.489 40.7ZM582.089 50L585.369 36.88H595.429C595.789 36.88 596.109 36.96 596.389 37.12C596.669 37.28 596.889 37.48 597.069 37.76C597.229 38.04 597.349 38.38 597.389 38.78C597.429 39.18 597.409 39.62 597.289 40.1L595.629 46.78C595.509 47.28 595.309 47.72 595.069 48.12C594.829 48.52 594.549 48.84 594.229 49.12C593.909 49.4 593.569 49.62 593.209 49.78C592.849 49.94 592.489 50 592.149 50H582.089ZM608.853 41.54L607.913 45.34H600.413L600.213 46.18H609.493L608.533 50H596.113L599.393 36.88H611.813L610.853 40.7H601.573L601.353 41.54H608.853ZM614.764 42.74L612.944 50H609.804L612.704 38.34C612.744 38.22 612.804 38.06 612.924 37.9C613.044 37.74 613.164 37.58 613.304 37.42C613.424 37.26 613.564 37.14 613.684 37.04C613.804 36.94 613.904 36.88 613.984 36.88H615.084C615.264 36.88 615.564 37.16 616.004 37.7L620.884 44.18L622.704 36.88H625.824L622.904 48.54C622.864 48.66 622.804 48.8 622.704 48.96C622.584 49.12 622.464 49.28 622.344 49.44C622.204 49.6 622.064 49.72 621.944 49.84C621.824 49.96 621.724 50 621.664 50H620.544C620.424 50 620.304 49.94 620.164 49.82C620.004 49.7 619.824 49.48 619.624 49.18L614.764 42.74ZM630.888 40.7H626.148L627.108 36.88H639.728L638.768 40.7H634.008L631.688 50H628.568L630.888 40.7Z" fill="black"/>
<path d="M693.96 50L694.52 47.78H692.42L691.86 50H688.72L689.28 47.78H687.2L688.14 43.96H690.22L690.46 43H688.38L689.34 39.18H691.42L692 36.88H695.14L694.56 39.18H696.66L697.24 36.88H700.38L699.8 39.18H701.88L700.92 43H698.84L698.6 43.96H700.68L699.74 47.78H697.66L697.1 50H693.96ZM693.6 43L693.36 43.96H695.46L695.7 43H693.6ZM702.928 40.1C703.048 39.62 703.228 39.18 703.488 38.78C703.728 38.38 704.028 38.04 704.348 37.76C704.668 37.48 705.008 37.28 705.368 37.12C705.728 36.96 706.068 36.88 706.428 36.88H714.108C714.468 36.88 714.788 36.96 715.068 37.12C715.348 37.28 715.588 37.48 715.768 37.76C715.928 38.04 716.048 38.38 716.088 38.78C716.128 39.18 716.108 39.62 715.988 40.1L714.328 46.78C714.208 47.28 714.008 47.72 713.768 48.12C713.528 48.52 713.248 48.84 712.928 49.12C712.608 49.4 712.268 49.62 711.908 49.78C711.548 49.94 711.188 50 710.828 50H703.148C702.788 50 702.468 49.94 702.188 49.78C701.908 49.62 701.668 49.4 701.488 49.12C701.308 48.84 701.188 48.52 701.148 48.12C701.108 47.72 701.148 47.28 701.268 46.78L702.928 40.1ZM706.448 40.7C706.288 40.74 706.168 40.8 706.048 40.9C705.928 41.02 705.828 41.12 705.788 41.22L704.708 45.62C704.668 45.74 704.688 45.86 704.768 45.98C704.848 46.1 704.948 46.16 705.088 46.18H710.808C710.928 46.16 711.068 46.1 711.228 45.98C711.368 45.86 711.448 45.74 711.488 45.62L712.568 41.22C712.568 41.12 712.528 41.02 712.448 40.9C712.368 40.8 712.288 40.74 712.168 40.7H706.448ZM723.036 45.22L729.076 36.88H732.796L723.836 49.18C723.456 49.56 723.096 49.8 722.736 49.88C722.376 49.96 722.076 50 721.836 50C721.716 50 721.576 50 721.416 49.98C721.256 49.98 721.116 49.94 720.976 49.88C720.816 49.82 720.676 49.74 720.556 49.62C720.416 49.52 720.296 49.38 720.216 49.18L717.416 36.88H721.136L723.036 45.22ZM743.384 41.54L742.444 45.34H734.944L734.744 46.18H744.024L743.064 50H730.644L733.924 36.88H746.344L745.384 40.7H736.104L735.884 41.54H743.384ZM753.315 50L751.055 46.32H748.375L747.455 50H744.335L747.615 36.88H757.675C758.035 36.88 758.355 36.96 758.635 37.12C758.915 37.28 759.135 37.48 759.315 37.76C759.475 38.04 759.595 38.38 759.635 38.78C759.675 39.18 759.655 39.62 759.535 40.1L758.795 43.12C758.675 43.62 758.475 44.06 758.235 44.46C757.975 44.86 757.675 45.18 757.355 45.46C757.015 45.74 756.655 45.96 756.275 46.1C755.895 46.26 755.515 46.32 755.155 46.32L757.315 50H753.315ZM755.735 40.7H749.775L749.335 42.48H755.295C755.415 42.46 755.555 42.4 755.715 42.28C755.855 42.16 755.935 42.04 755.975 41.92L756.135 41.22C756.135 41.12 756.095 41.02 756.015 40.9C755.935 40.8 755.855 40.74 755.735 40.7ZM769.719 40.7H760.679L761.639 36.88H771.399C771.759 36.88 772.079 36.96 772.359 37.12C772.639 37.28 772.859 37.48 773.039 37.76C773.199 38.04 773.319 38.38 773.359 38.78C773.399 39.18 773.379 39.62 773.259 40.1L772.859 41.74C772.819 41.86 772.779 42.02 772.699 42.18C772.619 42.34 772.539 42.5 772.439 42.66C772.319 42.82 772.219 42.98 772.099 43.12C771.979 43.26 771.859 43.36 771.759 43.44C771.919 43.64 772.019 43.92 772.059 44.24C772.099 44.58 772.079 44.88 772.019 45.14L771.599 46.78C771.479 47.28 771.279 47.72 771.039 48.12C770.799 48.52 770.519 48.84 770.199 49.12C769.879 49.4 769.539 49.62 769.179 49.78C768.819 49.94 768.459 50 768.119 50H758.359L759.319 46.18H768.339C768.439 46.16 768.519 46.1 768.579 46.02C768.619 45.94 768.659 45.84 768.699 45.76C768.739 45.56 768.679 45.42 768.559 45.36H761.299L762.259 41.52H769.499C769.659 41.48 769.779 41.34 769.859 41.1C769.899 40.9 769.839 40.76 769.719 40.7ZM774.53 40.1C774.65 39.62 774.83 39.18 775.09 38.78C775.33 38.38 775.63 38.04 775.95 37.76C776.27 37.48 776.61 37.28 776.97 37.12C777.33 36.96 777.67 36.88 778.03 36.88H785.71C786.07 36.88 786.39 36.96 786.67 37.12C786.95 37.28 787.19 37.48 787.37 37.76C787.53 38.04 787.65 38.38 787.69 38.78C787.73 39.18 787.71 39.62 787.59 40.1L785.93 46.78C785.81 47.28 785.61 47.72 785.37 48.12C785.13 48.52 784.85 48.84 784.53 49.12C784.21 49.4 783.87 49.62 783.51 49.78C783.15 49.94 782.79 50 782.43 50H774.75C774.39 50 774.07 49.94 773.79 49.78C773.51 49.62 773.27 49.4 773.09 49.12C772.91 48.84 772.79 48.52 772.75 48.12C772.71 47.72 772.75 47.28 772.87 46.78L774.53 40.1ZM783.91 40.76L779.93 46.18H782.41C782.53 46.16 782.67 46.1 782.83 45.98C782.97 45.86 783.05 45.74 783.09 45.62L784.17 41.22C784.17 41.02 784.07 40.86 783.91 40.76ZM778.05 40.7C777.89 40.74 777.77 40.8 777.65 40.9C777.53 41.02 777.43 41.12 777.39 41.22L776.31 45.62C776.23 45.78 776.29 45.94 776.47 46.08L780.39 40.7H778.05Z" fill="black"/>
<path d="M1030.96 50L1031.52 47.78H1029.42L1028.86 50H1025.72L1026.28 47.78H1024.2L1025.14 43.96H1027.22L1027.46 43H1025.38L1026.34 39.18H1028.42L1029 36.88H1032.14L1031.56 39.18H1033.66L1034.24 36.88H1037.38L1036.8 39.18H1038.88L1037.92 43H1035.84L1035.6 43.96H1037.68L1036.74 47.78H1034.66L1034.1 50H1030.96ZM1030.6 43L1030.36 43.96H1032.46L1032.7 43H1030.6ZM1039.93 40.1C1040.05 39.62 1040.23 39.18 1040.49 38.78C1040.73 38.38 1041.03 38.04 1041.35 37.76C1041.67 37.48 1042.01 37.28 1042.37 37.12C1042.73 36.96 1043.07 36.88 1043.43 36.88H1051.11C1051.47 36.88 1051.79 36.96 1052.07 37.12C1052.35 37.28 1052.59 37.48 1052.77 37.76C1052.93 38.04 1053.05 38.38 1053.09 38.78C1053.13 39.18 1053.11 39.62 1052.99 40.1L1051.33 46.78C1051.21 47.28 1051.01 47.72 1050.77 48.12C1050.53 48.52 1050.25 48.84 1049.93 49.12C1049.61 49.4 1049.27 49.62 1048.91 49.78C1048.55 49.94 1048.19 50 1047.83 50H1040.15C1039.79 50 1039.47 49.94 1039.19 49.78C1038.91 49.62 1038.67 49.4 1038.49 49.12C1038.31 48.84 1038.19 48.52 1038.15 48.12C1038.11 47.72 1038.15 47.28 1038.27 46.78L1039.93 40.1ZM1043.45 40.7C1043.29 40.74 1043.17 40.8 1043.05 40.9C1042.93 41.02 1042.83 41.12 1042.79 41.22L1041.71 45.62C1041.67 45.74 1041.69 45.86 1041.77 45.98C1041.85 46.1 1041.95 46.16 1042.09 46.18H1047.81C1047.93 46.16 1048.07 46.1 1048.23 45.98C1048.37 45.86 1048.45 45.74 1048.49 45.62L1049.57 41.22C1049.57 41.12 1049.53 41.02 1049.45 40.9C1049.37 40.8 1049.29 40.74 1049.17 40.7H1043.45ZM1060.04 45.22L1066.08 36.88H1069.8L1060.84 49.18C1060.46 49.56 1060.1 49.8 1059.74 49.88C1059.38 49.96 1059.08 50 1058.84 50C1058.72 50 1058.58 50 1058.42 49.98C1058.26 49.98 1058.12 49.94 1057.98 49.88C1057.82 49.82 1057.68 49.74 1057.56 49.62C1057.42 49.52 1057.3 49.38 1057.22 49.18L1054.42 36.88H1058.14L1060.04 45.22ZM1080.38 41.54L1079.44 45.34H1071.94L1071.74 46.18H1081.02L1080.06 50H1067.64L1070.92 36.88H1083.34L1082.38 40.7H1073.1L1072.88 41.54H1080.38ZM1090.32 50L1088.06 46.32H1085.38L1084.46 50H1081.34L1084.62 36.88H1094.68C1095.04 36.88 1095.36 36.96 1095.64 37.12C1095.92 37.28 1096.14 37.48 1096.32 37.76C1096.48 38.04 1096.6 38.38 1096.64 38.78C1096.68 39.18 1096.66 39.62 1096.54 40.1L1095.8 43.12C1095.68 43.62 1095.48 44.06 1095.24 44.46C1094.98 44.86 1094.68 45.18 1094.36 45.46C1094.02 45.74 1093.66 45.96 1093.28 46.1C1092.9 46.26 1092.52 46.32 1092.16 46.32L1094.32 50H1090.32ZM1092.74 40.7H1086.78L1086.34 42.48H1092.3C1092.42 42.46 1092.56 42.4 1092.72 42.28C1092.86 42.16 1092.94 42.04 1092.98 41.92L1093.14 41.22C1093.14 41.12 1093.1 41.02 1093.02 40.9C1092.94 40.8 1092.86 40.74 1092.74 40.7ZM1106.72 40.7H1097.68L1098.64 36.88H1108.4C1108.76 36.88 1109.08 36.96 1109.36 37.12C1109.64 37.28 1109.86 37.48 1110.04 37.76C1110.2 38.04 1110.32 38.38 1110.36 38.78C1110.4 39.18 1110.38 39.62 1110.26 40.1L1109.86 41.74C1109.82 41.86 1109.78 42.02 1109.7 42.18C1109.62 42.34 1109.54 42.5 1109.44 42.66C1109.32 42.82 1109.22 42.98 1109.1 43.12C1108.98 43.26 1108.86 43.36 1108.76 43.44C1108.92 43.64 1109.02 43.92 1109.06 44.24C1109.1 44.58 1109.08 44.88 1109.02 45.14L1108.6 46.78C1108.48 47.28 1108.28 47.72 1108.04 48.12C1107.8 48.52 1107.52 48.84 1107.2 49.12C1106.88 49.4 1106.54 49.62 1106.18 49.78C1105.82 49.94 1105.46 50 1105.12 50H1095.36L1096.32 46.18H1105.34C1105.44 46.16 1105.52 46.1 1105.58 46.02C1105.62 45.94 1105.66 45.84 1105.7 45.76C1105.74 45.56 1105.68 45.42 1105.56 45.36H1098.3L1099.26 41.52H1106.5C1106.66 41.48 1106.78 41.34 1106.86 41.1C1106.9 40.9 1106.84 40.76 1106.72 40.7ZM1111.53 40.1C1111.65 39.62 1111.83 39.18 1112.09 38.78C1112.33 38.38 1112.63 38.04 1112.95 37.76C1113.27 37.48 1113.61 37.28 1113.97 37.12C1114.33 36.96 1114.67 36.88 1115.03 36.88H1122.71C1123.07 36.88 1123.39 36.96 1123.67 37.12C1123.95 37.28 1124.19 37.48 1124.37 37.76C1124.53 38.04 1124.65 38.38 1124.69 38.78C1124.73 39.18 1124.71 39.62 1124.59 40.1L1122.93 46.78C1122.81 47.28 1122.61 47.72 1122.37 48.12C1122.13 48.52 1121.85 48.84 1121.53 49.12C1121.21 49.4 1120.87 49.62 1120.51 49.78C1120.15 49.94 1119.79 50 1119.43 50H1111.75C1111.39 50 1111.07 49.94 1110.79 49.78C1110.51 49.62 1110.27 49.4 1110.09 49.12C1109.91 48.84 1109.79 48.52 1109.75 48.12C1109.71 47.72 1109.75 47.28 1109.87 46.78L1111.53 40.1ZM1120.91 40.76L1116.93 46.18H1119.41C1119.53 46.16 1119.67 46.1 1119.83 45.98C1119.97 45.86 1120.05 45.74 1120.09 45.62L1121.17 41.22C1121.17 41.02 1121.07 40.86 1120.91 40.76ZM1115.05 40.7C1114.89 40.74 1114.77 40.8 1114.65 40.9C1114.53 41.02 1114.43 41.12 1114.39 41.22L1113.31 45.62C1113.23 45.78 1113.29 45.94 1113.47 46.08L1117.39 40.7H1115.05Z" fill="black"/>
<path d="M837.96 50L838.52 47.78H836.42L835.86 50H832.72L833.28 47.78H831.2L832.14 43.96H834.22L834.46 43H832.38L833.34 39.18H835.42L836 36.88H839.14L838.56 39.18H840.66L841.24 36.88H844.38L843.8 39.18H845.88L844.92 43H842.84L842.6 43.96H844.68L843.74 47.78H841.66L841.1 50H837.96ZM837.6 43L837.36 43.96H839.46L839.7 43H837.6ZM857.208 50H854.088L855.248 45.38H848.768L847.608 50H844.468L847.748 36.88H850.888L849.708 41.54H856.188L857.368 36.88H860.488L857.208 50ZM871.232 41.54L870.292 45.34H862.792L862.592 46.18H871.872L870.912 50H858.492L861.772 36.88H874.192L873.232 40.7H863.952L863.732 41.54H871.232ZM876.283 46.16H885.163L884.203 50H872.183L875.463 36.88H878.603L876.283 46.16ZM889.564 46.16H898.444L897.484 50H885.464L888.744 36.88H891.884L889.564 46.16ZM901.205 40.1C901.325 39.62 901.505 39.18 901.765 38.78C902.005 38.38 902.305 38.04 902.625 37.76C902.945 37.48 903.285 37.28 903.645 37.12C904.005 36.96 904.345 36.88 904.705 36.88H912.385C912.745 36.88 913.065 36.96 913.345 37.12C913.625 37.28 913.865 37.48 914.045 37.76C914.205 38.04 914.325 38.38 914.365 38.78C914.405 39.18 914.385 39.62 914.265 40.1L912.605 46.78C912.485 47.28 912.285 47.72 912.045 48.12C911.805 48.52 911.525 48.84 911.205 49.12C910.885 49.4 910.545 49.62 910.185 49.78C909.825 49.94 909.465 50 909.105 50H901.425C901.065 50 900.745 49.94 900.465 49.78C900.185 49.62 899.945 49.4 899.765 49.12C899.585 48.84 899.465 48.52 899.425 48.12C899.385 47.72 899.425 47.28 899.545 46.78L901.205 40.1ZM904.725 40.7C904.565 40.74 904.445 40.8 904.325 40.9C904.205 41.02 904.105 41.12 904.065 41.22L902.985 45.62C902.945 45.74 902.965 45.86 903.045 45.98C903.125 46.1 903.225 46.16 903.365 46.18H909.085C909.205 46.16 909.345 46.1 909.505 45.98C909.645 45.86 909.725 45.74 909.765 45.62L910.845 41.22C910.845 41.12 910.805 41.02 910.725 40.9C910.645 40.8 910.565 40.74 910.445 40.7H904.725ZM919.482 36.88L917.302 45.62C917.262 45.74 917.282 45.86 917.362 45.98C917.442 46.1 917.542 46.16 917.682 46.18H921.082L923.402 36.88H926.522L924.202 46.18H927.622C927.742 46.16 927.882 46.1 928.022 45.98C928.162 45.86 928.242 45.74 928.282 45.62L930.462 36.88H933.602L931.122 46.78C931.002 47.28 930.802 47.72 930.562 48.12C930.322 48.52 930.042 48.84 929.722 49.12C929.402 49.4 929.062 49.62 928.702 49.78C928.342 49.94 927.982 50 927.642 50H915.742C915.382 50 915.062 49.94 914.782 49.78C914.502 49.62 914.262 49.4 914.082 49.12C913.902 48.84 913.782 48.52 913.742 48.12C913.702 47.72 913.742 47.28 913.862 46.78L916.342 36.88H919.482ZM944.337 41.54L943.397 45.34H935.897L935.697 46.18H944.977L944.017 50H931.597L934.877 36.88H947.297L946.337 40.7H937.057L936.837 41.54H944.337ZM958.028 41.54L957.088 45.34H949.588L949.388 46.18H958.668L957.708 50H945.288L948.568 36.88H960.988L960.028 40.7H950.748L950.528 41.54H958.028ZM963.94 42.74L962.12 50H958.98L961.88 38.34C961.92 38.22 961.98 38.06 962.1 37.9C962.22 37.74 962.34 37.58 962.48 37.42C962.6 37.26 962.74 37.14 962.86 37.04C962.98 36.94 963.08 36.88 963.16 36.88H964.26C964.44 36.88 964.74 37.16 965.18 37.7L970.06 44.18L971.88 36.88H975L972.08 48.54C972.04 48.66 971.98 48.8 971.88 48.96C971.76 49.12 971.64 49.28 971.52 49.44C971.38 49.6 971.24 49.72 971.12 49.84C971 49.96 970.9 50 970.84 50H969.72C969.6 50 969.48 49.94 969.34 49.82C969.18 49.7 969 49.48 968.8 49.18L963.94 42.74Z" fill="black"/>
<path d="M1174.96 50L1175.52 47.78H1173.42L1172.86 50H1169.72L1170.28 47.78H1168.2L1169.14 43.96H1171.22L1171.46 43H1169.38L1170.34 39.18H1172.42L1173 36.88H1176.14L1175.56 39.18H1177.66L1178.24 36.88H1181.38L1180.8 39.18H1182.88L1181.92 43H1179.84L1179.6 43.96H1181.68L1180.74 47.78H1178.66L1178.1 50H1174.96ZM1174.6 43L1174.36 43.96H1176.46L1176.7 43H1174.6ZM1194.21 50H1191.09L1192.25 45.38H1185.77L1184.61 50H1181.47L1184.75 36.88H1187.89L1186.71 41.54H1193.19L1194.37 36.88H1197.49L1194.21 50ZM1208.23 41.54L1207.29 45.34H1199.79L1199.59 46.18H1208.87L1207.91 50H1195.49L1198.77 36.88H1211.19L1210.23 40.7H1200.95L1200.73 41.54H1208.23ZM1213.28 46.16H1222.16L1221.2 50H1209.18L1212.46 36.88H1215.6L1213.28 46.16ZM1226.56 46.16H1235.44L1234.48 50H1222.46L1225.74 36.88H1228.88L1226.56 46.16ZM1238.21 40.1C1238.33 39.62 1238.51 39.18 1238.77 38.78C1239.01 38.38 1239.31 38.04 1239.63 37.76C1239.95 37.48 1240.29 37.28 1240.65 37.12C1241.01 36.96 1241.35 36.88 1241.71 36.88H1249.39C1249.75 36.88 1250.07 36.96 1250.35 37.12C1250.63 37.28 1250.87 37.48 1251.05 37.76C1251.21 38.04 1251.33 38.38 1251.37 38.78C1251.41 39.18 1251.39 39.62 1251.27 40.1L1249.61 46.78C1249.49 47.28 1249.29 47.72 1249.05 48.12C1248.81 48.52 1248.53 48.84 1248.21 49.12C1247.89 49.4 1247.55 49.62 1247.19 49.78C1246.83 49.94 1246.47 50 1246.11 50H1238.43C1238.07 50 1237.75 49.94 1237.47 49.78C1237.19 49.62 1236.95 49.4 1236.77 49.12C1236.59 48.84 1236.47 48.52 1236.43 48.12C1236.39 47.72 1236.43 47.28 1236.55 46.78L1238.21 40.1ZM1241.73 40.7C1241.57 40.74 1241.45 40.8 1241.33 40.9C1241.21 41.02 1241.11 41.12 1241.07 41.22L1239.99 45.62C1239.95 45.74 1239.97 45.86 1240.05 45.98C1240.13 46.1 1240.23 46.16 1240.37 46.18H1246.09C1246.21 46.16 1246.35 46.1 1246.51 45.98C1246.65 45.86 1246.73 45.74 1246.77 45.62L1247.85 41.22C1247.85 41.12 1247.81 41.02 1247.73 40.9C1247.65 40.8 1247.57 40.74 1247.45 40.7H1241.73ZM1256.48 36.88L1254.3 45.62C1254.26 45.74 1254.28 45.86 1254.36 45.98C1254.44 46.1 1254.54 46.16 1254.68 46.18H1258.08L1260.4 36.88H1263.52L1261.2 46.18H1264.62C1264.74 46.16 1264.88 46.1 1265.02 45.98C1265.16 45.86 1265.24 45.74 1265.28 45.62L1267.46 36.88H1270.6L1268.12 46.78C1268 47.28 1267.8 47.72 1267.56 48.12C1267.32 48.52 1267.04 48.84 1266.72 49.12C1266.4 49.4 1266.06 49.62 1265.7 49.78C1265.34 49.94 1264.98 50 1264.64 50H1252.74C1252.38 50 1252.06 49.94 1251.78 49.78C1251.5 49.62 1251.26 49.4 1251.08 49.12C1250.9 48.84 1250.78 48.52 1250.74 48.12C1250.7 47.72 1250.74 47.28 1250.86 46.78L1253.34 36.88H1256.48ZM1281.34 41.54L1280.4 45.34H1272.9L1272.7 46.18H1281.98L1281.02 50H1268.6L1271.88 36.88H1284.3L1283.34 40.7H1274.06L1273.84 41.54H1281.34ZM1295.03 41.54L1294.09 45.34H1286.59L1286.39 46.18H1295.67L1294.71 50H1282.29L1285.57 36.88H1297.99L1297.03 40.7H1287.75L1287.53 41.54H1295.03ZM1300.94 42.74L1299.12 50H1295.98L1298.88 38.34C1298.92 38.22 1298.98 38.06 1299.1 37.9C1299.22 37.74 1299.34 37.58 1299.48 37.42C1299.6 37.26 1299.74 37.14 1299.86 37.04C1299.98 36.94 1300.08 36.88 1300.16 36.88H1301.26C1301.44 36.88 1301.74 37.16 1302.18 37.7L1307.06 44.18L1308.88 36.88H1312L1309.08 48.54C1309.04 48.66 1308.98 48.8 1308.88 48.96C1308.76 49.12 1308.64 49.28 1308.52 49.44C1308.38 49.6 1308.24 49.72 1308.12 49.84C1308 49.96 1307.9 50 1307.84 50H1306.72C1306.6 50 1306.48 49.94 1306.34 49.82C1306.18 49.7 1306 49.48 1305.8 49.18L1300.94 42.74Z" fill="black"/>
</g>
<defs>
<clipPath id="clip0_4_506">
<rect width="1280" height="84" fill="white"/>
</clipPath>
</defs>
</svg>
