<svg width="370" height="118" viewBox="0 0 370 118" fill="none" xmlns="http://www.w3.org/2000/svg">
<path d="M0 76V0.479996H7.68V76H0ZM11.52 76V0.479996H23.04V76H11.52ZM26.88 76V0.479996H30.72V76H26.88ZM20.992 117.344C17.152 117.344 14.0373 116.064 11.648 113.504L13.44 110.56L13.568 110.176L13.952 110.304C13.952 110.389 13.9947 110.56 14.08 110.816C14.08 110.987 14.1653 111.2 14.336 111.456C14.4213 111.627 14.592 111.797 14.848 111.968C16.64 113.504 18.8587 114.272 21.504 114.272C23.2107 114.272 24.6613 113.803 25.856 112.864C27.0507 111.84 27.648 110.645 27.648 109.28C27.648 108.341 27.4347 107.531 27.008 106.848C26.6667 106.251 26.0267 105.653 25.088 105.056C24.1493 104.459 22.6987 103.733 20.736 102.88C17.8347 101.771 15.744 100.491 14.464 99.04C13.2693 97.5893 12.672 95.968 12.672 94.176C12.672 91.9573 13.4827 90.1653 15.104 88.8C16.7253 87.4347 18.9013 86.752 21.632 86.752C23.2533 86.752 24.7893 87.0933 26.24 87.776C27.6053 88.4587 28.8427 89.3547 29.952 90.464L27.776 93.408L27.52 93.152C27.52 93.0667 27.4773 92.9387 27.392 92.768C27.392 92.512 27.3067 92.2987 27.136 92.128C27.0507 91.872 26.88 91.6587 26.624 91.488C25.9413 90.8053 25.1307 90.2933 24.192 89.952C23.3387 89.696 22.3147 89.568 21.12 89.568C19.584 89.568 18.3893 89.9947 17.536 90.848C16.5973 91.7013 16.128 92.7253 16.128 93.92C16.128 94.8587 16.2987 95.6693 16.64 96.352C17.0667 97.0347 17.792 97.6747 18.816 98.272C19.84 98.9547 21.376 99.68 23.424 100.448C26.24 101.643 28.2027 102.837 29.312 104.032C30.336 105.312 30.848 106.891 30.848 108.768C30.848 110.219 30.5067 111.584 29.824 112.864C29.056 114.144 27.9467 115.211 26.496 116.064C24.96 116.917 23.1253 117.344 20.992 117.344ZM42.25 76V0.479996H49.93V76H42.25ZM53.77 76V0.479996H65.29V76H53.77ZM69.13 76V0.479996H80.65V76H69.13ZM63.37 117.344C60.298 117.344 57.9513 116.405 56.33 114.528C54.7087 112.651 53.898 110.005 53.898 106.592V87.136H57.61V87.52C57.354 87.6907 57.226 87.904 57.226 88.16C57.1407 88.3307 57.098 88.7147 57.098 89.312V106.592C57.098 109.152 57.61 111.115 58.634 112.48C59.5727 113.845 61.194 114.528 63.498 114.528C65.7167 114.528 67.338 113.845 68.362 112.48C69.386 111.115 69.898 109.109 69.898 106.464V87.136H73.098V106.464C73.098 110.133 72.2447 112.864 70.538 114.656C68.8313 116.448 66.442 117.344 63.37 117.344ZM84.5 76V0.479996H96.02V76H84.5ZM99.86 76V0.479996H107.54V76H99.86ZM119.06 76V0.479996H122.9V76H119.06ZM96.148 114.528L110.996 90.208H96.66V87.136H114.964V89.568L100.244 113.888H113.684C114.196 113.888 114.58 113.845 114.836 113.76C115.007 113.675 115.22 113.547 115.476 113.376H115.732V116.832H96.148V114.528ZM126.75 76V0.479996H134.43V76H126.75ZM145.95 76V0.479996H149.79V76H145.95ZM161.31 76V0.479996H165.15V76H161.31ZM139.806 114.016H145.694V89.952H140.19V87.136H154.91V89.952H149.022V114.016H155.166V116.832H139.806V114.016ZM169 76V0.479996H176.68V76H169ZM180.52 76V0.479996H188.2V76H180.52ZM195.88 76V0.479996H203.56V76H195.88ZM211.25 76V0.479996H222.77V76H211.25ZM226.61 76V0.479996H230.45V76H226.61ZM241.97 76V0.479996H249.65V76H241.97ZM221.234 87.136H224.306L227.506 107.232L232.37 89.312H233.394L238.13 107.36L240.818 87.136H243.634L239.026 116.832H237.746L232.626 97.504L227.378 116.832H225.97L221.234 87.136ZM253.5 76V0.479996H257.34V76H253.5ZM268.86 76V0.479996H280.38V76H268.86ZM284.22 76V0.479996H291.9V76H284.22ZM274.62 117.344C271.207 117.344 268.604 116.021 266.812 113.376C264.935 110.731 263.996 106.976 263.996 102.112C263.996 97.4187 264.935 93.7067 266.812 90.976C268.689 88.3307 271.292 87.008 274.62 87.008C277.948 87.008 280.551 88.3307 282.428 90.976C284.305 93.7067 285.244 97.4187 285.244 102.112C285.244 106.976 284.305 110.731 282.428 113.376C280.636 116.021 278.033 117.344 274.62 117.344ZM274.62 114.4C276.924 114.4 278.673 113.376 279.868 111.328C281.148 109.195 281.788 106.123 281.788 102.112C281.788 98.3573 281.148 95.3707 279.868 93.152C278.588 91.0187 276.839 89.952 274.62 89.952C272.401 89.952 270.652 91.0187 269.372 93.152C268.092 95.3707 267.452 98.3573 267.452 102.112C267.452 106.123 268.049 109.195 269.244 111.328C270.524 113.376 272.316 114.4 274.62 114.4ZM295.75 76V0.479996H299.59V76H295.75ZM303.43 76V0.479996H314.95V76H303.43ZM326.47 76V0.479996H334.15V76H326.47ZM307.398 87.136H310.598L323.014 109.152V87.136H326.726V87.52C326.47 87.6907 326.342 87.904 326.342 88.16C326.257 88.3307 326.214 88.7147 326.214 89.312V116.832H323.654L310.47 93.536V116.832H307.398V87.136ZM338 76V0.479996H345.68V76H338ZM349.52 76V0.479996H353.36V76H349.52ZM364.88 76V0.479996H368.72V76H364.88ZM360.4 117.344C358.011 117.344 355.963 116.704 354.256 115.424C352.549 114.229 351.227 112.48 350.288 110.176C349.349 107.957 348.88 105.355 348.88 102.368C348.88 98.4427 349.477 95.328 350.672 93.024C351.867 90.72 353.317 89.0987 355.024 88.16C356.731 87.3067 358.437 86.88 360.144 86.88C361.936 86.88 363.643 87.3493 365.264 88.288C366.971 89.1413 368.208 90.336 368.976 91.872L366.672 93.664L366.288 94.048L366.16 93.792C366.16 93.536 366.117 93.28 366.032 93.024C365.861 92.8533 365.605 92.5547 365.264 92.128C364.496 91.2747 363.728 90.6773 362.96 90.336C362.192 89.9947 361.253 89.824 360.144 89.824C357.84 89.824 355.92 90.72 354.384 92.512C352.933 94.3893 352.208 97.4187 352.208 101.6C352.208 105.696 352.933 108.853 354.384 111.072C355.835 113.291 357.84 114.4 360.4 114.4C361.339 114.4 362.32 114.229 363.344 113.888C364.453 113.632 365.349 113.205 366.032 112.608V105.568H360.656V102.624H369.104V114.272C366.288 116.32 363.387 117.344 360.4 117.344Z" fill="white"/>
</svg>
