<svg width="328" height="227" viewBox="0 0 328 227" fill="none" xmlns="http://www.w3.org/2000/svg">
<path d="M58.5 91.6875V156.25C56.5833 157.917 54.0208 159.312 50.8125 160.438C47.6042 161.562 43.7083 162.125 39.125 162.125C34.5417 162.125 30.6458 161.104 27.4375 159.062C23.8125 156.854 22 153.729 22 149.688V85.125C23.9167 83.4583 26.4792 82.0625 29.6875 80.9375C32.8958 79.8125 36.7708 79.25 41.3125 79.25C45.8542 79.25 49.7917 80.25 53.125 82.25C56.7083 84.5417 58.5 87.6875 58.5 91.6875ZM94.75 130.438V131.938C94.75 132.646 94.7708 133.146 94.8125 133.438C95.3125 133.646 95.7917 133.75 96.25 133.75C97.4583 133.75 98.0625 132.938 98.0625 131.312C98.0625 127.062 98.5625 119.062 99.5625 107.312C100.104 100.938 100.438 97.1875 100.562 96.0625C104.479 93.4375 109.167 92.125 114.625 92.125C120.125 92.125 124.375 93.5833 127.375 96.5C130.042 99.1667 131.375 102.625 131.375 106.875C131.375 109.75 130.979 112.729 130.188 115.812C126.312 130.771 122.458 142.542 118.625 151.125C116.583 155.583 113.479 158.625 109.312 160.25C106.229 161.5 101.833 162.125 96.125 162.125C93.0833 162.125 90.0625 161.875 87.0625 161.375C84.1042 160.875 81.8333 160.292 80.25 159.625C74.2083 147.292 69.2292 133.646 65.3125 118.688C64.0208 117.396 62.9167 115.583 62 113.25C61.0833 110.917 60.625 108.5 60.625 106C60.625 100.833 61.875 96.3958 64.375 92.6875C64.375 92.6875 69.5625 92.6875 79.9375 92.6875C85.3958 92.6875 89.4583 94.2292 92.125 97.3125C94.125 99.6458 95.4167 103.042 96 107.5C95.1667 115.25 94.75 122.896 94.75 130.438ZM169.438 162.938C157.896 162.938 148.792 159.729 142.125 153.312C135.292 146.854 131.875 138.021 131.875 126.812C131.875 115.562 135.396 106.646 142.438 100.062C148.938 93.9375 157.167 90.875 167.125 90.875C177.083 90.875 185.062 93.625 191.062 99.125C197.104 104.583 200.125 111.312 200.125 119.312C200.125 126.438 197.646 131.812 192.688 135.438C188.104 138.854 181.854 140.562 173.938 140.562C168.021 140.562 163.021 139.333 158.938 136.875C158.604 137.125 158.438 137.583 158.438 138.25C158.438 139.5 160.083 140.646 163.375 141.688C166.667 142.812 170.396 143.375 174.562 143.375C178.771 143.375 182.583 142.854 186 141.812C189.458 140.729 192.229 139.458 194.312 138C195.312 138.875 196.104 140.5 196.688 142.875C197.312 145.208 197.625 147.354 197.625 149.312C197.625 151.229 197.438 152.938 197.062 154.438C193.812 157.188 190.479 159.146 187.062 160.312C182.229 162.062 176.354 162.938 169.438 162.938ZM168.625 120.625C170.708 120.625 171.75 119.833 171.75 118.25C171.75 116.75 170.646 116 168.438 116C166.229 116 164.958 117.188 164.625 119.562C165.792 120.271 167.125 120.625 168.625 120.625ZM270.125 130.062C270.125 133.062 270.458 135.479 271.125 137.312C271.792 139.146 272.958 140.583 274.625 141.625C274.667 141.833 274.688 142.229 274.688 142.812V143.938C274.688 149.688 273.021 154.167 269.688 157.375C266.396 160.542 262.125 162.125 256.875 162.125C251.667 162.125 247.438 160.646 244.188 157.688C240.396 154.312 238.5 149.188 238.5 142.312C238.5 139.396 238.625 136.833 238.875 134.625C239.167 132.375 239.354 130.771 239.438 129.812C239.562 128.854 239.688 127.958 239.812 127.125C239.938 126.292 240 125.062 240 123.438C240 121.812 239.771 120.646 239.312 119.938C238.896 119.229 238.292 118.875 237.5 118.875C236.75 118.875 236.083 119.042 235.5 119.375L236.312 129.562C235.562 133.771 235.188 138.229 235.188 142.938C235.188 147.646 236.25 151.938 238.375 155.812C234.292 160.021 228.562 162.125 221.188 162.125C216.979 162.125 213.333 161.021 210.25 158.812C206.667 156.312 204.875 153 204.875 148.875V118.625C202.417 115.167 201.188 110.917 201.188 105.875C201.188 100.792 202.417 96.3958 204.875 92.6875H216C218.958 92.6875 221.479 93.7917 223.562 96C221.729 97.7083 220.812 99.125 220.812 100.25C220.812 101.542 221.542 102.188 223 102.188C224.833 99.0208 227.625 96.3958 231.375 94.3125C235.167 92.2292 239.458 91.1875 244.25 91.1875C251.458 91.1875 257.312 92.9583 261.812 96.5C267.479 100.958 270.312 107.875 270.312 117.25L270.125 130.062ZM281 121.5H284.875C286.958 121.5 288 120.812 288 119.438C288 119.271 287.958 119.021 287.875 118.688H273.875C272.958 115.771 272.5 112.521 272.5 108.938C272.5 105.312 272.771 102.375 273.312 100.125C275.688 98.625 278.958 96.3333 283.125 93.25C284.292 90.4167 285.812 85.9167 287.688 79.75C287.938 78.9167 288.229 78.1042 288.562 77.3125C291.812 76.4792 295.521 76.0625 299.688 76.0625C303.854 76.0625 307.958 76.5 312 77.375V92.6875H322.812C325.229 96.3542 326.438 100.667 326.438 105.625C326.438 107.875 326.125 110.188 325.5 112.562C324.875 114.938 323.979 116.958 322.812 118.625H313.875V128.062C313.875 133.396 316.104 136.062 320.562 136.062H323.25C324.125 139.229 324.562 141.979 324.562 144.312C324.562 150.062 322.75 154.479 319.125 157.562C315.542 160.604 310.312 162.125 303.438 162.125C296.604 162.125 291.146 160.229 287.062 156.438C283.021 152.604 281 146.979 281 139.562V121.5Z" fill="white"/>
<path fill-rule="evenodd" clip-rule="evenodd" d="M67.9332 28.3334C61.3998 -0.533305 18.6332 -0.566639 12.0665 28.3C8.23318 45.2334 18.7665 59.6 27.9665 68.4667C34.6998 74.9334 45.2998 74.9334 51.9998 68.4667C61.2332 59.6 71.7665 45.2667 67.9332 28.3334ZM50.4001 34.3667C50.4001 40.1104 45.7439 44.7667 40.0001 44.7667C34.2563 44.7667 29.6001 40.1104 29.6001 34.3667C29.6001 28.6229 34.2563 23.9667 40.0001 23.9667C45.7439 23.9667 50.4001 28.6229 50.4001 34.3667Z" fill="#3ED1FF"/>
</svg>
